<svg width="90" height="90" viewBox="0 0 90 90" fill="none" xmlns="http://www.w3.org/2000/svg">
<path fill-rule="evenodd" clip-rule="evenodd" d="M7 12.5C6.72386 12.5 6.5 12.7239 6.5 13V59.9754C6.5 60.3972 6.99015 60.6295 7.31662 60.3624L13.8543 55.0134C14.4796 54.5018 15.2627 54.2222 16.0707 54.2222H25.7134V57.2222H16.0707C15.9552 57.2222 15.8434 57.2622 15.754 57.3352L9.21633 62.6843C6.93108 64.554 3.5 62.9281 3.5 59.9754V13C3.5 11.067 5.067 9.5 7 9.5H62.7865C64.7195 9.5 66.2865 11.067 66.2865 13V26.0643H63.2865V13C63.2865 12.7239 63.0627 12.5 62.7865 12.5H7Z" fill="black"/>
<path fill-rule="evenodd" clip-rule="evenodd" d="M83.5 27.5645C83.7761 27.5645 84 27.7883 84 28.0645V75.0399C84 75.4617 83.5098 75.694 83.1834 75.4269L76.6457 70.0778C76.0204 69.5662 75.2373 69.2867 74.4293 69.2867H27.7135C27.4373 69.2867 27.2135 69.0628 27.2135 68.7867V28.0645C27.2135 27.7883 27.4373 27.5645 27.7135 27.5645H83.5ZM87 28.0645C87 26.1315 85.433 24.5645 83.5 24.5645H27.7135C25.7805 24.5645 24.2135 26.1315 24.2135 28.0645V68.7867C24.2135 70.7197 25.7805 72.2867 27.7135 72.2867H74.4293C74.5448 72.2867 74.6566 72.3266 74.746 72.3997L81.2837 77.7487C83.5689 79.6185 87 77.9926 87 75.0399V28.0645Z" fill="black"/>
<path fill-rule="evenodd" clip-rule="evenodd" d="M36.9258 38.3037C36.9258 37.4753 37.5974 36.8037 38.4258 36.8037H70.9082C71.7367 36.8037 72.4082 37.4753 72.4082 38.3037C72.4082 39.1321 71.7367 39.8037 70.9082 39.8037H38.4258C37.5974 39.8037 36.9258 39.1321 36.9258 38.3037Z" fill="black"/>
<path fill-rule="evenodd" clip-rule="evenodd" d="M37.3965 47.7197C37.3965 46.8913 38.0681 46.2197 38.8965 46.2197H65.2591C66.0875 46.2197 66.7591 46.8913 66.7591 47.7197C66.7591 48.5482 66.0875 49.2197 65.2591 49.2197H38.8965C38.0681 49.2197 37.3965 48.5482 37.3965 47.7197Z" fill="black"/>
<path fill-rule="evenodd" clip-rule="evenodd" d="M37.3965 57.1348C37.3965 56.3063 38.0681 55.6348 38.8965 55.6348H58.6684C59.4968 55.6348 60.1684 56.3063 60.1684 57.1348C60.1684 57.9632 59.4968 58.6348 58.6684 58.6348H38.8965C38.0681 58.6348 37.3965 57.9632 37.3965 57.1348Z" fill="black"/>
</svg>
