<svg width="90" height="90" viewBox="0 0 90 90" fill="none" xmlns="http://www.w3.org/2000/svg">
<path fill-rule="evenodd" clip-rule="evenodd" d="M23.5 18.5C23.5 17.6716 24.1716 17 25 17H53.5C54.3284 17 55 17.6716 55 18.5C55 19.3284 54.3284 20 53.5 20H25C24.1716 20 23.5 19.3284 23.5 18.5Z" fill="black"/>
<path fill-rule="evenodd" clip-rule="evenodd" d="M23.5 32C23.5 31.1716 24.1716 30.5 25 30.5H53.5C54.3284 30.5 55 31.1716 55 32C55 32.8284 54.3284 33.5 53.5 33.5H25C24.1716 33.5 23.5 32.8284 23.5 32Z" fill="black"/>
<path fill-rule="evenodd" clip-rule="evenodd" d="M23.5 46C23.5 45.1716 24.1716 44.5 25 44.5H53.5C54.3284 44.5 55 45.1716 55 46C55 46.8284 54.3284 47.5 53.5 47.5H25C24.1716 47.5 23.5 46.8284 23.5 46Z" fill="black"/>
<path fill-rule="evenodd" clip-rule="evenodd" d="M23.5 60C23.5 59.1716 24.1716 58.5 25 58.5H43C43.8284 58.5 44.5 59.1716 44.5 60C44.5 60.8284 43.8284 61.5 43 61.5H25C24.1716 61.5 23.5 60.8284 23.5 60Z" fill="black"/>
<path fill-rule="evenodd" clip-rule="evenodd" d="M78 14H68.5V11H78C79.933 11 81.5 12.567 81.5 14.5V85.5C81.5 87.433 79.933 89 78 89H24C22.067 89 20.5 87.433 20.5 85.5V77H23.5V85.5C23.5 85.7761 23.7239 86 24 86H78C78.2761 86 78.5 85.7761 78.5 85.5V14.5C78.5 14.2239 78.2761 14 78 14Z" fill="black"/>
<path fill-rule="evenodd" clip-rule="evenodd" d="M12.5 3.5C12.2239 3.5 12 3.72386 12 4V74.5C12 74.7761 12.2239 75 12.5 75H56.6716C56.8042 75 56.9314 74.9473 57.0251 74.8536L66.8536 65.0251C66.9473 64.9314 67 64.8042 67 64.6716V4C67 3.72386 66.7761 3.5 66.5 3.5H12.5ZM9 4C9 2.067 10.567 0.5 12.5 0.5H66.5C68.433 0.5 70 2.067 70 4V64.6716C70 65.5998 69.6312 66.4901 68.9749 67.1464L59.1464 76.9749C58.4901 77.6312 57.5998 78 56.6716 78H12.5C10.567 78 9 76.433 9 74.5V4Z" fill="black"/>
</svg>
