<svg width="31" height="24" viewBox="0 0 31 24" fill="none" xmlns="http://www.w3.org/2000/svg">
<rect x="3.5" y="5.5" width="24.1915" height="15.9143" rx="2.01915" stroke="#444444"/>
<path d="M4.82958 5.62418C4.62192 5.44216 4.30603 5.46294 4.124 5.6706C3.94198 5.87826 3.96276 6.19416 4.17042 6.37618L4.82958 5.62418ZM27.3214 6.38317C27.533 6.20564 27.5605 5.89026 27.383 5.67874C27.2055 5.46723 26.8901 5.43967 26.6786 5.6172L27.3214 6.38317ZM13.6308 14.0039L13.9604 13.6279L13.6308 14.0039ZM4.17042 6.37618L13.3012 14.3798L13.9604 13.6279L4.82958 5.62418L4.17042 6.37618ZM17.7369 14.4274L27.3214 6.38317L26.6786 5.6172L17.0941 13.6615L17.7369 14.4274ZM13.3012 14.3798C14.5655 15.488 16.4492 15.5083 17.7369 14.4274L17.0941 13.6615C16.1843 14.425 14.8536 14.4108 13.9604 13.6279L13.3012 14.3798Z" fill="#444444"/>
</svg>
