<svg width="90" height="90" viewBox="0 0 90 90" fill="none" xmlns="http://www.w3.org/2000/svg">
<g clip-path="url(#clip0_1_460)">
<path fill-rule="evenodd" clip-rule="evenodd" d="M59.6225 58.3402L61.2659 57.507C66.0217 55.0959 69.2706 50.1657 69.2706 44.482C69.2706 36.4229 62.7374 29.8896 54.6783 29.8896C46.6192 29.8896 40.0859 36.4229 40.0859 44.482C40.0859 51.7937 45.4665 57.8542 52.4835 58.9108L58.361 59.7958L49.8403 68.3165L56.6502 75.1264L49.8403 81.9364L54.1101 86.2062L59.6225 80.6938V58.3402ZM62.6225 81.9364L54.1101 90.4488L45.5977 81.9364L52.4076 75.1264L45.5977 68.3165L52.0368 61.8774C50.868 61.7014 49.7368 61.4104 48.6553 61.0163C41.9056 58.5569 37.0859 52.0823 37.0859 44.482C37.0859 34.766 44.9623 26.8896 54.6783 26.8896C64.3943 26.8896 72.2706 34.766 72.2706 44.482C72.2706 51.3394 68.3471 57.2805 62.6225 60.1827V81.9364Z" fill="black"/>
<path fill-rule="evenodd" clip-rule="evenodd" d="M54.6778 43.1846C55.8417 43.1846 56.7852 42.2411 56.7852 41.0772C56.7852 39.9133 55.8417 38.9697 54.6778 38.9697C53.5139 38.9697 52.5703 39.9133 52.5703 41.0772C52.5703 42.2411 53.5139 43.1846 54.6778 43.1846ZM54.6778 46.1846C57.4985 46.1846 59.7852 43.898 59.7852 41.0772C59.7852 38.2564 57.4985 35.9697 54.6778 35.9697C51.857 35.9697 49.5703 38.2564 49.5703 41.0772C49.5703 43.898 51.857 46.1846 54.6778 46.1846Z" fill="black"/>
<mask id="mask0_1_460" style="mask-type:alpha" maskUnits="userSpaceOnUse" x="3" y="25" width="53" height="62">
<path d="M55.0034 61.573L42.5185 32.6307L45.9235 29.2258L35.7085 25.8208L15.8462 50.2231L3.36133 74.6254L11.3063 86.5428L32.3036 75.7604L55.0034 61.573Z" fill="#FF43D6"/>
</mask>
<g mask="url(#mask0_1_460)">
<path fill-rule="evenodd" clip-rule="evenodd" d="M38.1009 61.5383L39.8521 62.1112C44.92 63.7693 50.7036 62.5805 54.7226 58.5615C60.4213 52.8628 60.4213 43.6234 54.7226 37.9248C49.024 32.2261 39.7846 32.2261 34.0859 37.9248C28.9155 43.0952 28.4349 51.1859 32.6504 56.8949L36.1813 61.6769L24.1281 61.6769L24.1281 71.3076L14.4974 71.3076L14.4974 77.346L22.2932 77.346L38.1009 61.5383ZM23.5358 80.346L11.4974 80.346L11.4974 68.3076L21.1281 68.3076L21.1281 58.6769L30.237 58.6769C29.5348 57.7259 28.9406 56.7203 28.4544 55.6769C25.42 49.1649 26.5901 41.178 31.9646 35.8034C38.8349 28.9332 49.9737 28.9332 56.844 35.8034C63.7142 42.6737 63.7142 53.8125 56.844 60.6828C51.9949 65.5318 45.0195 66.9584 38.9193 64.9625L23.5358 80.346Z" fill="black"/>
</g>
<path fill-rule="evenodd" clip-rule="evenodd" d="M46 3.5C36.3619 3.5 28.5 11.4719 28.5 21.3664C28.5 26.2448 30.4129 30.6597 33.5111 33.8817L35.4006 35.3005L33.5994 37.6995L31.5222 36.1399L31.4411 36.0567C27.7672 32.2844 25.5 27.0912 25.5 21.3664C25.5 9.86934 34.6513 0.5 46 0.5C57.3487 0.5 66.5 9.86934 66.5 21.3664C66.5 30.8952 60.2204 38.9523 51.6115 41.441L50.7784 38.559C58.1057 36.4408 63.5 29.5573 63.5 21.3664C63.5 11.4719 55.6381 3.5 46 3.5Z" fill="black"/>
</g>
<defs>
<clipPath id="clip0_1_460">
<rect width="90" height="90" fill="white"/>
</clipPath>
</defs>
</svg>
