<svg width="90" height="90" viewBox="0 0 90 90" fill="none" xmlns="http://www.w3.org/2000/svg">
<path fill-rule="evenodd" clip-rule="evenodd" d="M45 0.600006C45.455 0.600006 45.8817 0.821162 46.144 1.193L64.8107 27.6545C64.9169 27.8051 64.9923 27.9752 65.0327 28.1549L74.366 69.7374C74.4949 70.3114 74.251 70.9048 73.7557 71.2225L45.7557 89.1785C45.2952 89.4738 44.7048 89.4738 44.2442 89.1785L16.2442 71.2225C15.749 70.9048 15.5051 70.3114 15.634 69.7374L24.9673 28.1549C25.0077 27.9752 25.0831 27.8051 25.1893 27.6545L43.856 1.193C44.1183 0.821162 44.545 0.600006 45 0.600006ZM27.6382 29.0405L18.5806 69.3944L45 86.3369L71.4194 69.3944L62.3618 29.0405L45 4.42873L27.6382 29.0405Z" fill="black"/>
<path fill-rule="evenodd" clip-rule="evenodd" d="M43.6653 88.4227L24.6653 28.4227L27.3347 27.5774L45 83.3626L62.6653 27.5774L65.3347 28.4227L46.3347 88.4227C46.1504 89.0046 45.6104 89.4 45 89.4C44.3896 89.4 43.8496 89.0046 43.6653 88.4227Z" fill="black"/>
<path fill-rule="evenodd" clip-rule="evenodd" d="M43.6 20.649V2H46.4V20.649L74.2154 69.3052C74.4631 69.7385 74.4614 70.2709 74.2109 70.7026C73.9604 71.1343 73.4991 71.4 73 71.4H17C16.5009 71.4 16.0395 71.1343 15.789 70.7026C15.5386 70.2709 15.5369 69.7385 15.7846 69.3052L43.6 20.649ZM45 23.8419L19.4129 68.6H70.587L45 23.8419Z" fill="black"/>
</svg>
