<svg width="90" height="90" viewBox="0 0 90 90" fill="none" xmlns="http://www.w3.org/2000/svg">
<path fill-rule="evenodd" clip-rule="evenodd" d="M43.5 75L43.5 57L46.5 57L46.5 75L43.5 75Z" fill="black"/>
<path fill-rule="evenodd" clip-rule="evenodd" d="M38.0607 54.0607L17.0607 75.0607L14.9393 72.9393L35.9393 51.9393L38.0607 54.0607Z" fill="black"/>
<path fill-rule="evenodd" clip-rule="evenodd" d="M75.0607 17.0607L54.0607 38.0607L51.9393 35.9393L72.9393 14.9393L75.0607 17.0607Z" fill="black"/>
<path fill-rule="evenodd" clip-rule="evenodd" d="M34.9393 37.0607L14.9393 17.0607L17.0607 14.9393L37.0607 34.9393L34.9393 37.0607Z" fill="black"/>
<path fill-rule="evenodd" clip-rule="evenodd" d="M67.5702 70.1781L51.9772 54.5851L54.0985 52.4637L69.6915 68.0568L67.5702 70.1781Z" fill="black"/>
<path fill-rule="evenodd" clip-rule="evenodd" d="M13.5783 16.1566C15.5546 16.1566 17.1566 14.5546 17.1566 12.5783C17.1566 10.6021 15.5546 9 13.5783 9C11.6021 9 10 10.6021 10 12.5783C10 14.5546 11.6021 16.1566 13.5783 16.1566ZM13.5783 19.1566C17.2114 19.1566 20.1566 16.2114 20.1566 12.5783C20.1566 8.94521 17.2114 6 13.5783 6C9.94521 6 7 8.94521 7 12.5783C7 16.2114 9.94521 19.1566 13.5783 19.1566Z" fill="black"/>
<path fill-rule="evenodd" clip-rule="evenodd" d="M44.5116 54.4237C49.7173 54.4237 53.9373 50.2036 53.9373 44.998C53.9373 39.7923 49.7173 35.5723 44.5116 35.5723C39.306 35.5723 35.0859 39.7923 35.0859 44.998C35.0859 50.2036 39.306 54.4237 44.5116 54.4237ZM44.5116 57.4237C51.3742 57.4237 56.9373 51.8605 56.9373 44.998C56.9373 38.1354 51.3742 32.5723 44.5116 32.5723C37.6491 32.5723 32.0859 38.1354 32.0859 44.998C32.0859 51.8605 37.6491 57.4237 44.5116 57.4237Z" fill="black"/>
<path fill-rule="evenodd" clip-rule="evenodd" d="M45 87C47.7614 87 50 84.7614 50 82C50 79.2386 47.7614 77 45 77C42.2386 77 40 79.2386 40 82C40 84.7614 42.2386 87 45 87ZM45 90C49.4183 90 53 86.4183 53 82C53 77.5817 49.4183 74 45 74C40.5817 74 37 77.5817 37 82C37 86.4183 40.5817 90 45 90Z" fill="black"/>
<path fill-rule="evenodd" clip-rule="evenodd" d="M73 77C75.2091 77 77 75.2091 77 73C77 70.7909 75.2091 69 73 69C70.7909 69 69 70.7909 69 73C69 75.2091 70.7909 77 73 77ZM73 80C76.866 80 80 76.866 80 73C80 69.134 76.866 66 73 66C69.134 66 66 69.134 66 73C66 76.866 69.134 80 73 80Z" fill="black"/>
<path fill-rule="evenodd" clip-rule="evenodd" d="M80 17C83.866 17 87 13.866 87 10C87 6.13401 83.866 3 80 3C76.134 3 73 6.13401 73 10C73 13.866 76.134 17 80 17ZM80 20C85.5228 20 90 15.5228 90 10C90 4.47715 85.5228 0 80 0C74.4772 0 70 4.47715 70 10C70 15.5228 74.4772 20 80 20Z" fill="black"/>
<path fill-rule="evenodd" clip-rule="evenodd" d="M10 87C13.866 87 17 83.866 17 80C17 76.134 13.866 73 10 73C6.13401 73 3 76.134 3 80C3 83.866 6.13401 87 10 87ZM10 90C15.5228 90 20 85.5228 20 80C20 74.4772 15.5228 70 10 70C4.47715 70 0 74.4772 0 80C0 85.5228 4.47715 90 10 90Z" fill="black"/>
</svg>
