<svg width="90" height="90" viewBox="0 0 90 90" fill="none" xmlns="http://www.w3.org/2000/svg">
<path fill-rule="evenodd" clip-rule="evenodd" d="M30.3087 32.4348C29.5793 32.2004 28.8915 31.7994 28.2452 31.242C28.0522 31.0784 27.8974 30.8869 27.7874 30.6669C27.6789 30.45 27.6191 30.2211 27.6191 29.984C27.6191 29.6044 27.7552 29.2668 28.0159 28.9899C28.2963 28.693 28.6543 28.54 29.0631 28.54C29.3831 28.54 29.6749 28.6436 29.925 28.8437L29.928 28.8461C30.3607 29.1991 30.7789 29.4595 31.1822 29.6341C31.5753 29.7993 32.0766 29.89 32.6991 29.89C33.101 29.89 33.4614 29.8307 33.7841 29.7169C34.1112 29.5896 34.3574 29.4328 34.5366 29.2548C34.6994 29.082 34.7651 28.9092 34.7651 28.724C34.7651 28.4508 34.6859 28.2395 34.5374 28.0663C34.3799 27.8825 34.1162 27.704 33.7096 27.5501L33.7008 27.5468C33.2973 27.3832 32.768 27.2514 32.1035 27.1581L32.1005 27.1577C31.4296 27.0583 30.8294 26.9078 30.3037 26.7026L30.2959 26.6996C29.7698 26.4814 29.3157 26.2072 28.9407 25.8724L28.9351 25.8674L28.9297 25.8621C28.5666 25.5125 28.2888 25.1065 28.0993 24.6463L28.0977 24.6426C27.9084 24.1691 27.8171 23.6498 27.8171 23.09C27.8171 22.2392 28.0344 21.4886 28.4861 20.8588L28.4894 20.8542C28.9436 20.2398 29.5492 19.7769 30.2939 19.4633C31.0324 19.1524 31.842 19 32.7171 19C33.537 19 34.3025 19.126 35.0097 19.3826C35.7123 19.6214 36.3035 19.9354 36.7698 20.3334C37.1852 20.665 37.4371 21.088 37.4371 21.596C37.4371 21.9752 37.2866 22.3105 37.0219 22.5906C36.7488 22.8798 36.4062 23.04 36.0111 23.04C35.7446 23.04 35.4984 22.9579 35.2851 22.798L35.2731 22.789L35.2617 22.779C35.1092 22.6455 34.8892 22.5091 34.5887 22.3755L34.5775 22.3706C34.277 22.2258 33.9587 22.1083 33.6221 22.0185L33.6101 22.0153C33.2801 21.9163 32.9832 21.87 32.7171 21.87C32.234 21.87 31.8462 21.932 31.5429 22.0428C31.2451 22.1561 31.0489 22.299 30.9251 22.4559C30.8028 22.6108 30.7411 22.7868 30.7411 23C30.7411 23.2747 30.8155 23.4765 30.9451 23.6328C31.1057 23.7992 31.3484 23.9529 31.6968 24.0803C32.0706 24.2045 32.5246 24.3198 33.0616 24.425C33.7936 24.5593 34.4413 24.7192 35.0024 24.9061C35.5866 25.0968 36.0868 25.3498 36.4917 25.673C36.907 25.9923 37.2181 26.402 37.4236 26.8944C37.6303 27.3776 37.7251 27.9501 37.7251 28.598C37.7251 29.4568 37.4855 30.2165 36.9947 30.8572C36.5174 31.4804 35.8902 31.9531 35.1243 32.2778C34.3749 32.6007 33.5649 32.76 32.6991 32.76C31.8272 32.76 31.0312 32.6542 30.3149 32.4368L30.3087 32.4348ZM49.9258 29.2263L49.9251 29.228C49.4776 30.2382 48.8206 31.0526 47.9542 31.6606C47.0822 32.2812 46.0192 32.58 44.7894 32.58H40.4874C40.0789 32.58 39.715 32.4427 39.4207 32.1648L39.4124 32.157L39.4046 32.1486C39.1267 31.8544 38.9894 31.4905 38.9894 31.082V20.678C38.9894 20.2695 39.127 19.9067 39.4125 19.6212C39.7053 19.3284 40.0718 19.18 40.4874 19.18H44.7894C45.704 19.18 46.533 19.3517 47.2671 19.7057C47.9933 20.0558 48.6051 20.55 49.0986 21.1852C49.6003 21.8036 49.9704 22.5212 50.2118 23.3326C50.4645 24.13 50.5894 24.98 50.5894 25.88C50.5894 27.093 50.3703 28.2104 49.9258 29.2263ZM42.0394 29.71H44.6094C45.2947 29.71 45.8175 29.5375 46.2112 29.2235C46.6281 28.8788 46.9349 28.4278 47.1286 27.8574L47.13 27.8532C47.3416 27.252 47.4494 26.5953 47.4494 25.88C47.4494 25.3474 47.3871 24.8477 47.2644 24.3793L47.2616 24.3686C47.1514 23.8947 46.9778 23.4922 46.7458 23.1546L46.7425 23.1499C46.513 22.8056 46.2239 22.5377 45.8722 22.3412C45.5351 22.1528 45.1191 22.05 44.6094 22.05H42.0394V29.71ZM58.4282 25.0485L62.2266 30.0707C62.4414 30.3621 62.5566 30.6902 62.5566 31.046C62.5566 31.4971 62.3808 31.8846 62.0389 32.1777L62.0303 32.185C61.7101 32.4442 61.34 32.58 60.9326 32.58C60.4674 32.58 60.08 32.38 59.8026 32.006L59.8009 32.0038L56.1631 27.2164L54.9066 28.4189V31.082C54.9066 31.4905 54.7693 31.8544 54.4914 32.1486L54.4835 32.157C54.1894 32.451 53.8033 32.58 53.3726 32.58C52.9493 32.58 52.5711 32.4482 52.2797 32.1568L52.2716 32.1488C51.9937 31.8545 51.8566 31.4905 51.8566 31.082V20.678C51.8566 20.2641 52.0041 19.9003 52.3017 19.6172C52.6 19.321 52.9801 19.18 53.4086 19.18C53.8343 19.18 54.2119 19.32 54.4916 19.6294C54.7715 19.9137 54.9066 20.2734 54.9066 20.678V24.6232L59.9837 19.6212L59.985 19.6199C60.3159 19.2895 60.7059 19.09 61.1486 19.09C61.5646 19.09 61.9123 19.2708 62.1636 19.6008C62.397 19.8809 62.5386 20.2001 62.5386 20.552C62.5386 20.9319 62.3714 21.2628 62.0974 21.5368L62.0912 21.5431L58.4282 25.0485Z" fill="black"/>
<path fill-rule="evenodd" clip-rule="evenodd" d="M44.12 2.11464C44.9567 1.56083 46.0433 1.56082 46.88 2.11464L80.5683 24.4152C82.0617 25.4038 82.0617 27.5959 80.5683 28.5845L46.88 50.8854C46.0433 51.4392 44.9567 51.4392 44.12 50.8854L10.4317 28.5845C8.9383 27.5959 8.93831 25.4038 10.4317 24.4152L44.12 2.11464ZM45.5 4.7989L12.7175 26.4999L45.5 48.2011L78.2826 26.4999L45.5 4.7989Z" fill="black"/>
<path fill-rule="evenodd" clip-rule="evenodd" d="M78.2925 44.3749L66.0817 36.2487L67.7437 33.7512L80.5801 42.2936C82.0667 43.2829 82.0667 45.4668 80.5801 46.4561L46.8851 68.88C46.0461 69.4384 44.9539 69.4384 44.1149 68.88L10.4199 46.4561C8.93335 45.4668 8.93334 43.2829 10.4199 42.2936L23.2563 33.7512L24.9183 36.2487L12.7075 44.3749L45.5 66.1982L78.2925 44.3749Z" fill="black"/>
<path fill-rule="evenodd" clip-rule="evenodd" d="M12.7288 63.6404L25.4753 55.2531L23.8263 52.7469L10.445 61.5519C8.94395 62.5396 8.94395 64.7411 10.445 65.7288L44.1258 87.8914C44.9597 88.4401 46.0402 88.4401 46.8742 87.8914L80.555 65.7288C82.056 64.7411 82.056 62.5396 80.555 61.5519L67.1737 52.7469L65.5247 55.2531L78.2712 63.6404L45.5 85.2044L12.7288 63.6404Z" fill="black"/>
</svg>
